<?xml version="1.0" encoding="iso-8859-1"?>
<!-- Uploaded to: SVG Repo, www.svgrepo.com, Generator: SVG Repo Mixer Tools -->
<svg fill="#000000" height="800px" width="800px" version="1.1" id="Layer_1" xmlns="http://www.w3.org/2000/svg" xmlns:xlink="http://www.w3.org/1999/xlink" 
	 viewBox="0 0 512 512" xml:space="preserve">
<g>
	<g>
		<path d="M495.305,278.261h-77.911c-9.22,0-16.695,7.475-16.695,16.695v0.203c-18.957-10.471-40.348-16.159-61.972-16.917
			c-16.159-12.869-54.388-38.772-104.981-43.676v-23.25c0-23.37,13.908-34.655,23.61-44.357h59.866
			c46.029,0,83.477-37.448,83.477-83.476V16.702c0-9.22-7.475-16.695-16.695-16.695h-66.781c-46.029,0-83.476,37.448-83.476,83.476
			v59.866c-9.472,9.472-12.262,11.991-16.695,17.875c-4.439-5.891-7.241-8.421-16.695-17.875V83.482
			c0-46.029-37.448-83.476-83.476-83.476H50.097c-9.22,0-16.695,7.475-16.695,16.695v66.781c0,46.029,37.448,83.476,83.476,83.476
			h59.866c9.583,9.583,23.61,20.908,23.61,44.357v23.145c-43.374,3.626-91.933,22.574-118.283,55.342
			c-19.581-16.303-48.83-15.428-67.388,3.131c-19.578,19.577-19.58,51.248,0,70.827l100.172,100.172
			c9.461,9.462,22.038,14.673,35.413,14.673h250.429V495.3c0,9.22,7.475,16.695,16.695,16.695h77.911
			c9.22,0,16.695-7.475,16.695-16.695V294.956C512,285.736,504.525,278.261,495.305,278.261z M267.136,83.482
			c0-27.617,22.469-50.086,50.086-50.086h50.086v50.086c0,27.617-22.469,50.086-50.086,50.086h-26.475l38.281-38.281
			c6.52-6.52,6.52-17.09,0-23.61c-6.519-6.52-17.09-6.52-23.611,0l-38.281,38.281V83.482z M166.964,109.957l-38.281-38.281
			c-6.519-6.52-17.09-6.52-23.61,0s-6.52,17.09,0,23.61l38.281,38.281h-26.475c-27.617,0-50.086-22.468-50.086-50.086V33.396h50.086
			c27.617,0,50.086,22.469,50.086,50.086V109.957z M217.05,267.13c26.146,0,51.07,7.852,71.669,18.426
			c-12.659,4.315-24.76,10.525-35.79,18.678c-8.295,6.131-18.847,7.418-26.238,7.418H183.66c-21.441,0-39.773,13.547-46.902,32.529
			l-30.734-30.733C122.43,290.286,166.16,267.13,217.05,267.13z M400.698,445.213H150.269c-4.392,0-8.694-1.783-11.802-4.893
			L38.295,340.148c-6.528-6.528-6.529-17.076,0-23.605c6.509-6.508,17.097-6.508,23.606,0l90.389,90.389
			c3.131,3.131,7.377,4.891,11.805,4.891c3.278,0,149.642,0,153.127,0c9.22,0,16.695-7.475,16.695-16.695
			c0-9.22-7.475-16.695-16.695-16.695c-1.745,0-131.785,0-133.562,0c-9.206,0-16.695-7.49-16.695-16.695
			c0-9.206,7.49-16.695,16.695-16.695h43.033c17.796,0,33.732-4.826,46.086-13.957c37.42-27.659,93.331-25.215,127.92,4.567V445.213
			z M478.61,478.603h-44.521V311.651h44.521V478.603z" fill="#ffffff"/>
	</g>
</g>
</svg>